<?xml version="1.0" encoding="utf-8"?>
<!-- Generator: Adobe Illustrator 17.0.0, SVG Export Plug-In . SVG Version: 6.00 Build 0)  -->
<!DOCTYPE svg PUBLIC "-//W3C//DTD SVG 1.1//EN" "http://www.w3.org/Graphics/SVG/1.1/DTD/svg11.dtd">
<svg version="1.1" id="Layer_1" xmlns="http://www.w3.org/2000/svg" xmlns:xlink="http://www.w3.org/1999/xlink" x="0px" y="0px"
	 width="61px" height="40px" viewBox="0 0 61 40" enable-background="new 0 0 61 40" xml:space="preserve">
<g>
	<path fill="#24438B" d="M25.063,16.391c0.866-0.341,0.953-2.198,1.035-3.995c0.114-2.479,0.256-5.562,2.899-6.602
		s4.848,1.12,6.621,2.856c1.285,1.259,2.613,2.56,3.479,2.219c0.866-0.341,0.953-2.198,1.035-3.995
		c0.114-2.479,0.257-5.562,2.899-6.602c2.643-1.04,4.849,1.12,6.622,2.856c1.285,1.259,2.614,2.559,3.479,2.219
		c0.758-0.298,1.613,0.074,1.91,0.831c0.298,0.757-0.072,1.612-0.831,1.91c-2.642,1.04-4.848-1.121-6.62-2.856
		c-1.285-1.259-2.614-2.559-3.481-2.218c-0.866,0.341-0.952,2.198-1.034,3.995c-0.114,2.478-0.257,5.562-2.9,6.602
		s-4.848-1.121-6.62-2.856c-1.285-1.258-2.614-2.559-3.48-2.219c-0.866,0.341-0.952,2.198-1.034,3.995
		c-0.114,2.478-0.256,5.562-2.9,6.602l-0.001,0c-2.642,1.04-4.848-1.121-6.62-2.857c-1.284-1.258-2.613-2.559-3.478-2.218
		c-0.866,0.341-0.952,2.198-1.034,3.994c-0.114,2.479-0.256,5.563-2.898,6.602s-4.848-1.121-6.62-2.857
		c-1.285-1.258-2.613-2.559-3.479-2.218c-0.758,0.298-1.613-0.075-1.91-0.831c-0.298-0.758,0.074-1.613,0.832-1.911
		c2.642-1.04,4.847,1.12,6.62,2.857c1.285,1.259,2.613,2.56,3.478,2.219c0.866-0.341,0.952-2.198,1.034-3.995
		c0.114-2.479,0.256-5.562,2.898-6.602s4.847,1.12,6.619,2.857c1.285,1.259,2.613,2.56,3.478,2.219"/>
	<path fill="#24438B" d="M30.831,31.049c0.866-0.341,0.953-2.198,1.035-3.995c0.114-2.478,0.257-5.56,2.9-6.6
		s4.848,1.119,6.621,2.855c1.285,1.258,2.613,2.559,3.479,2.218c0.866-0.341,0.953-2.198,1.035-3.995
		c0.114-2.478,0.258-5.561,2.9-6.6c2.643-1.04,4.849,1.119,6.622,2.854c1.285,1.259,2.614,2.559,3.479,2.219
		c0.758-0.298,1.613,0.075,1.911,0.832c0.298,0.757-0.072,1.612-0.831,1.91c-2.642,1.04-4.848-1.121-6.62-2.856
		c-1.285-1.258-2.614-2.558-3.48-2.217c-0.866,0.341-0.952,2.198-1.034,3.994c-0.114,2.478-0.257,5.562-2.9,6.602
		c-2.643,1.04-4.848-1.121-6.62-2.856c-1.285-1.258-2.614-2.558-3.479-2.218c-0.866,0.341-0.952,2.198-1.034,3.994
		c-0.114,2.478-0.256,5.562-2.9,6.602l-0.001,0c-2.642,1.04-4.848-1.121-6.62-2.857c-1.284-1.258-2.613-2.559-3.478-2.218
		c-0.866,0.341-0.952,2.198-1.034,3.994c-0.114,2.478-0.256,5.562-2.898,6.602s-4.848-1.121-6.62-2.857
		c-1.285-1.258-2.613-2.559-3.479-2.218c-0.758,0.298-1.613-0.075-1.911-0.832s0.074-1.612,0.832-1.91
		c2.642-1.04,4.847,1.119,6.619,2.856c1.284,1.258,2.613,2.559,3.478,2.218c0.866-0.341,0.952-2.198,1.034-3.994
		c0.114-2.479,0.256-5.561,2.898-6.601c2.642-1.04,4.847,1.119,6.618,2.856c1.284,1.258,2.613,2.559,3.478,2.218"/>
</g>
</svg>
