<?xml version="1.0" encoding="utf-8"?>
<!-- Generator: Adobe Illustrator 17.0.0, SVG Export Plug-In . SVG Version: 6.00 Build 0)  -->
<!DOCTYPE svg PUBLIC "-//W3C//DTD SVG 1.1//EN" "http://www.w3.org/Graphics/SVG/1.1/DTD/svg11.dtd">
<svg version="1.1" id="Layer_1" xmlns="http://www.w3.org/2000/svg" xmlns:xlink="http://www.w3.org/1999/xlink" x="0px" y="0px"
	 width="59px" height="47px" viewBox="0 0 59 47" enable-background="new 0 0 59 47" xml:space="preserve">
<g>
	<path fill="#FF7E00" d="M54.34,17.38c-0.132,0.076-0.291,0.087-0.433,0.031l-5.436-2.171l-0.853,5.791
		c-0.022,0.151-0.112,0.283-0.244,0.359c-0.132,0.076-0.291,0.087-0.433,0.031l-5.436-2.171l-0.853,5.791
		c-0.022,0.151-0.112,0.283-0.244,0.359c-0.132,0.076-0.291,0.087-0.433,0.031l-5.436-2.171l-0.853,5.791
		c-0.022,0.151-0.112,0.283-0.244,0.359c-0.132,0.076-0.291,0.087-0.433,0.031l-5.436-2.171L26.72,33.06
		c-0.022,0.151-0.112,0.283-0.244,0.359c-0.132,0.076-0.291,0.087-0.433,0.031l-5.436-2.171l-0.853,5.791
		c-0.022,0.151-0.112,0.283-0.244,0.359c-0.132,0.076-0.291,0.087-0.433,0.031l-5.436-2.171l-0.853,5.791
		c-0.022,0.151-0.112,0.283-0.244,0.359c-0.132,0.076-0.291,0.087-0.433,0.031L6.09,39.064c-0.255-0.102-0.38-0.392-0.278-0.647
		c0.102-0.255,0.392-0.38,0.647-0.278l5.436,2.171l0.853-5.791c0.022-0.151,0.112-0.283,0.244-0.359
		c0.132-0.076,0.291-0.087,0.433-0.031l5.436,2.171l0.853-5.791c0.022-0.151,0.112-0.283,0.244-0.359s0.291-0.087,0.433-0.031
		l5.436,2.171L26.68,26.5c0.022-0.151,0.112-0.283,0.244-0.359s0.291-0.087,0.433-0.031l5.436,2.171l0.853-5.791
		c0.022-0.151,0.112-0.283,0.244-0.359c0.132-0.076,0.291-0.087,0.433-0.031l5.436,2.171l0.853-5.791
		c0.022-0.151,0.112-0.283,0.244-0.359c0.132-0.076,0.291-0.087,0.433-0.031l5.436,2.171l0.853-5.791
		c0.022-0.151,0.112-0.283,0.244-0.359c0.132-0.076,0.291-0.087,0.433-0.031l5.436,2.171l0.853-5.791
		c0.04-0.272,0.293-0.46,0.565-0.42c0.272,0.04,0.46,0.293,0.42,0.565l-0.945,6.414C54.562,17.172,54.472,17.304,54.34,17.38z"/>
	<path fill="#FF7E00" d="M57.228,22.398c-0.132,0.076-0.291,0.087-0.433,0.031l-5.436-2.171l-0.853,5.791
		c-0.022,0.151-0.112,0.283-0.244,0.359c-0.132,0.076-0.291,0.087-0.433,0.031l-5.436-2.171l-0.853,5.791
		c-0.022,0.151-0.112,0.283-0.244,0.359c-0.132,0.076-0.291,0.087-0.433,0.031l-5.436-2.171l-0.853,5.791
		c-0.022,0.151-0.112,0.283-0.244,0.359c-0.132,0.076-0.291,0.087-0.433,0.031l-5.436-2.171l-0.853,5.791
		c-0.022,0.151-0.112,0.283-0.244,0.359c-0.132,0.076-0.291,0.087-0.433,0.031l-5.436-2.171l-0.853,5.791
		c-0.022,0.151-0.112,0.283-0.244,0.359c-0.132,0.076-0.291,0.087-0.433,0.031l-5.436-2.171l-0.853,5.791
		c-0.022,0.151-0.112,0.283-0.244,0.359c-0.132,0.076-0.291,0.087-0.433,0.031l-6.021-2.405c-0.255-0.102-0.38-0.392-0.278-0.647
		c0.102-0.256,0.392-0.38,0.647-0.278l5.436,2.171l0.853-5.791c0.022-0.151,0.112-0.283,0.244-0.359
		c0.132-0.076,0.291-0.087,0.433-0.031l5.436,2.171l0.853-5.791c0.022-0.151,0.112-0.283,0.244-0.359s0.291-0.087,0.433-0.031
		l5.436,2.171l0.853-5.791c0.022-0.151,0.112-0.283,0.244-0.359c0.132-0.076,0.291-0.087,0.433-0.031l5.436,2.171l0.853-5.791
		c0.022-0.151,0.112-0.283,0.244-0.359c0.132-0.076,0.291-0.087,0.433-0.031l5.436,2.171l0.853-5.791
		c0.022-0.151,0.112-0.283,0.244-0.359c0.132-0.076,0.291-0.087,0.433-0.031l5.436,2.171l0.853-5.791
		c0.022-0.151,0.112-0.283,0.244-0.359c0.132-0.076,0.291-0.087,0.433-0.031l5.436,2.171l0.853-5.791
		c0.04-0.272,0.293-0.46,0.565-0.42c0.272,0.04,0.46,0.293,0.42,0.565l-0.945,6.414C57.45,22.19,57.36,22.322,57.228,22.398z"/>
	<path fill="#FF7E00" d="M51.452,12.362c-0.132,0.076-0.291,0.087-0.433,0.031l-5.436-2.171l-0.853,5.791
		c-0.022,0.151-0.112,0.283-0.244,0.359c-0.132,0.076-0.291,0.087-0.433,0.031l-5.436-2.171l-0.853,5.791
		c-0.022,0.151-0.112,0.283-0.244,0.359c-0.132,0.076-0.291,0.087-0.433,0.031l-5.436-2.171l-0.853,5.791
		c-0.022,0.151-0.112,0.283-0.244,0.359c-0.132,0.076-0.291,0.087-0.433,0.031l-5.436-2.171l-0.853,5.791
		c-0.022,0.151-0.112,0.283-0.244,0.359c-0.132,0.076-0.291,0.087-0.433,0.031l-5.436-2.171l-0.853,5.791
		c-0.022,0.151-0.112,0.283-0.244,0.359s-0.291,0.087-0.433,0.031l-5.436-2.171L9.9,36.061c-0.022,0.151-0.112,0.283-0.244,0.359
		c-0.132,0.076-0.291,0.087-0.433,0.031l-6.021-2.405c-0.255-0.102-0.38-0.392-0.278-0.647c0.102-0.256,0.392-0.38,0.647-0.278
		l5.436,2.171l0.853-5.791c0.022-0.151,0.112-0.283,0.244-0.359c0.132-0.076,0.291-0.087,0.433-0.031l5.436,2.171l0.853-5.791
		c0.022-0.151,0.112-0.283,0.244-0.359c0.132-0.076,0.291-0.087,0.433-0.031l5.436,2.171l0.853-5.791
		c0.022-0.151,0.112-0.283,0.244-0.359c0.132-0.076,0.291-0.087,0.433-0.031l5.436,2.171l0.853-5.791
		c0.022-0.151,0.112-0.283,0.244-0.359c0.132-0.076,0.291-0.087,0.433-0.031l5.436,2.171l0.853-5.791
		c0.022-0.151,0.112-0.283,0.244-0.359c0.132-0.076,0.291-0.087,0.433-0.031l5.436,2.171l0.853-5.791
		c0.022-0.151,0.112-0.283,0.244-0.359c0.132-0.076,0.291-0.087,0.433-0.031l5.436,2.171l0.853-5.791
		c0.04-0.272,0.293-0.46,0.565-0.42c0.272,0.04,0.46,0.293,0.42,0.565l-0.945,6.414C51.673,12.154,51.583,12.286,51.452,12.362z"/>
	<path fill="#FF7E00" d="M48.563,7.344c-0.132,0.076-0.291,0.087-0.433,0.031l-5.436-2.171l-0.853,5.791
		c-0.022,0.151-0.112,0.283-0.244,0.359c-0.132,0.076-0.291,0.087-0.433,0.031l-5.436-2.171l-0.853,5.791
		c-0.022,0.151-0.112,0.283-0.244,0.359c-0.132,0.076-0.291,0.087-0.433,0.031l-5.436-2.171l-0.853,5.791
		c-0.022,0.151-0.112,0.283-0.244,0.359c-0.132,0.076-0.291,0.087-0.433,0.031l-5.436-2.171l-0.853,5.791
		c-0.022,0.151-0.112,0.283-0.244,0.359s-0.291,0.087-0.433,0.031l-5.436-2.171l-0.853,5.791c-0.022,0.151-0.112,0.283-0.244,0.359
		c-0.132,0.076-0.291,0.087-0.433,0.031l-5.436-2.171l-0.853,5.791c-0.022,0.151-0.112,0.283-0.244,0.359
		c-0.132,0.076-0.291,0.087-0.433,0.031l-6.021-2.405c-0.255-0.102-0.38-0.392-0.278-0.647c0.102-0.256,0.392-0.38,0.647-0.278
		l5.436,2.171l0.853-5.791c0.022-0.151,0.112-0.283,0.244-0.359c0.132-0.076,0.291-0.087,0.433-0.031l5.436,2.171l0.853-5.791
		c0.022-0.151,0.112-0.283,0.244-0.359s0.291-0.087,0.433-0.031l5.436,2.171l0.853-5.791c0.022-0.151,0.112-0.283,0.244-0.359
		c0.132-0.076,0.291-0.087,0.433-0.031l5.436,2.171l0.853-5.791c0.022-0.151,0.112-0.283,0.244-0.359
		c0.132-0.076,0.291-0.087,0.433-0.031l5.436,2.171l0.853-5.791c0.022-0.151,0.112-0.283,0.244-0.359
		c0.132-0.076,0.291-0.087,0.433-0.031l5.436,2.171l0.853-5.791c0.022-0.151,0.112-0.283,0.244-0.359
		C42.177,4,42.336,3.989,42.478,4.045l5.436,2.171l0.853-5.791c0.04-0.272,0.293-0.46,0.565-0.42c0.272,0.04,0.46,0.293,0.42,0.565
		l-0.945,6.415C48.785,7.136,48.695,7.268,48.563,7.344z"/>
</g>
</svg>
