<?xml version="1.0" encoding="utf-8"?>
<!-- Generator: Adobe Illustrator 17.0.0, SVG Export Plug-In . SVG Version: 6.00 Build 0)  -->
<!DOCTYPE svg PUBLIC "-//W3C//DTD SVG 1.1//EN" "http://www.w3.org/Graphics/SVG/1.1/DTD/svg11.dtd">
<svg version="1.1" id="Layer_1" xmlns="http://www.w3.org/2000/svg" xmlns:xlink="http://www.w3.org/1999/xlink" x="0px" y="0px"
	 width="56px" height="56px" viewBox="0 0 56 56" enable-background="new 0 0 56 56" xml:space="preserve">
<g>
	<polygon fill="#FF7E00" points="52.455,14.655 17.696,55.157 0,4.804 	"/>
	<path fill="#24438B" d="M13.598,55.379c-0.163,0-0.327-0.027-0.486-0.082c-0.502-0.174-0.874-0.602-0.974-1.124l-0.759-3.928
		c-0.156-0.807,0.372-1.587,1.178-1.742c0.806-0.156,1.587,0.372,1.742,1.178l0.273,1.413c0.614-0.406,1.448-0.303,1.943,0.267
		c0.538,0.621,0.471,1.56-0.149,2.098l-1.794,1.555C14.298,55.253,13.951,55.379,13.598,55.379z M20.209,49.647
		c-0.416,0-0.83-0.174-1.124-0.513c-0.538-0.621-0.471-1.56,0.149-2.098l4.816-4.176c0.62-0.538,1.56-0.471,2.098,0.149
		c0.538,0.621,0.471,1.56-0.149,2.098l-4.816,4.176C20.902,49.527,20.555,49.647,20.209,49.647z M11.63,45.192
		c-0.698,0-1.321-0.494-1.459-1.206l-1.209-6.259c-0.156-0.807,0.372-1.587,1.178-1.742c0.806-0.156,1.587,0.372,1.742,1.178
		l1.209,6.259c0.156,0.807-0.372,1.587-1.178,1.742C11.818,45.183,11.723,45.192,11.63,45.192z M29.841,41.294
		c-0.416,0-0.83-0.174-1.124-0.513c-0.538-0.621-0.471-1.56,0.149-2.098l4.816-4.176c0.62-0.538,1.56-0.472,2.098,0.149
		c0.538,0.621,0.471,1.56-0.149,2.098l-4.816,4.176C30.534,41.174,30.187,41.294,29.841,41.294z M39.474,32.941
		c-0.416,0-0.83-0.174-1.124-0.513c-0.538-0.621-0.471-1.56,0.149-2.098l4.816-4.176c0.62-0.538,1.56-0.471,2.098,0.149
		c0.538,0.621,0.471,1.56-0.149,2.098l-4.816,4.176C40.166,32.822,39.819,32.941,39.474,32.941z M9.212,32.674
		c-0.698,0-1.321-0.494-1.459-1.206l-1.209-6.259c-0.156-0.807,0.372-1.587,1.178-1.742c0.806-0.156,1.587,0.372,1.742,1.178
		l1.209,6.259c0.156,0.807-0.372,1.587-1.178,1.742C9.401,32.665,9.306,32.674,9.212,32.674z M49.106,24.589
		c-0.416,0-0.83-0.174-1.124-0.513c-0.538-0.621-0.471-1.56,0.149-2.098l2.87-2.488l-4.297-1.486
		c-0.776-0.268-1.188-1.115-0.92-1.892c0.268-0.777,1.115-1.188,1.892-0.92l6.025,2.083c0.122,0.042,0.236,0.099,0.339,0.167
		c0.376,0.03,0.74,0.201,1.006,0.508c0.538,0.621,0.471,1.56-0.149,2.098l-4.816,4.176C49.798,24.469,49.451,24.589,49.106,24.589z
		 M6.795,20.156c-0.698,0-1.321-0.494-1.459-1.206l-1.209-6.259c-0.156-0.807,0.372-1.587,1.178-1.742
		c0.806-0.156,1.587,0.372,1.742,1.178l1.209,6.259c0.156,0.807-0.372,1.587-1.178,1.742C6.983,20.147,6.888,20.156,6.795,20.156z
		 M41.165,16.003c-0.161,0-0.325-0.026-0.486-0.082l-6.025-2.083c-0.776-0.268-1.188-1.115-0.92-1.892
		c0.268-0.777,1.115-1.188,1.892-0.92l6.025,2.083c0.776,0.268,1.188,1.115,0.92,1.892C42.358,15.617,41.781,16.003,41.165,16.003z
		 M29.115,11.837c-0.161,0-0.325-0.026-0.486-0.082l-6.025-2.083c-0.776-0.268-1.188-1.115-0.92-1.892
		c0.268-0.777,1.115-1.189,1.892-0.92l6.025,2.083c0.776,0.268,1.188,1.115,0.92,1.892C30.308,11.451,29.731,11.837,29.115,11.837z
		 M17.065,7.672c-0.161,0-0.325-0.026-0.486-0.082l-6.025-2.083c-0.776-0.268-1.188-1.115-0.92-1.892
		c0.268-0.777,1.115-1.188,1.892-0.92l6.025,2.083c0.776,0.268,1.188,1.115,0.92,1.892C18.258,7.286,17.682,7.672,17.065,7.672z
		 M4.377,7.638c-0.698,0-1.321-0.494-1.459-1.206l-0.9-4.663C1.917,1.248,2.102,0.712,2.504,0.364
		c0.401-0.348,0.958-0.456,1.46-0.282l1.537,0.531c0.776,0.268,1.188,1.115,0.92,1.892C6.25,2.998,5.846,3.344,5.375,3.462
		l0.465,2.406C5.995,6.675,5.467,7.455,4.661,7.61C4.566,7.629,4.471,7.638,4.377,7.638z"/>
</g>
</svg>
