<?xml version="1.0" encoding="utf-8"?>
<!-- Generator: Adobe Illustrator 17.0.0, SVG Export Plug-In . SVG Version: 6.00 Build 0)  -->
<!DOCTYPE svg PUBLIC "-//W3C//DTD SVG 1.1//EN" "http://www.w3.org/Graphics/SVG/1.1/DTD/svg11.dtd">
<svg version="1.1" id="Layer_1" xmlns="http://www.w3.org/2000/svg" xmlns:xlink="http://www.w3.org/1999/xlink" x="0px" y="0px"
	 width="61px" height="66px" viewBox="0 0 61 66" enable-background="new 0 0 61 66" xml:space="preserve">
<g>
	
		<rect x="3.329" y="24.538" transform="matrix(0.9776 -0.2107 0.2107 0.9776 -8.4238 6.7175)" fill="#24438B" width="47.973" height="36.713"/>
	<path fill="#FF7E00" d="M15.735,48.266c-0.686,0-1.302-0.477-1.453-1.174c-0.173-0.803,0.338-1.594,1.141-1.767l6.232-1.343
		c0.803-0.174,1.594,0.338,1.767,1.141c0.173,0.803-0.338,1.594-1.141,1.767l-6.232,1.343
		C15.945,48.255,15.839,48.266,15.735,48.266z M11.823,46.015c-0.686,0-1.302-0.477-1.453-1.174l-1.343-6.232
		c-0.173-0.803,0.338-1.594,1.141-1.767c0.803-0.174,1.594,0.338,1.767,1.141l1.343,6.232c0.173,0.803-0.338,1.594-1.141,1.767
		C12.033,46.004,11.927,46.015,11.823,46.015z M28.199,45.58c-0.686,0-1.302-0.477-1.453-1.174
		c-0.173-0.803,0.338-1.594,1.141-1.767l6.232-1.343c0.803-0.174,1.594,0.338,1.767,1.141c0.173,0.803-0.338,1.594-1.141,1.767
		l-6.232,1.343C28.408,45.569,28.302,45.58,28.199,45.58z M40.662,42.894c-0.686,0-1.302-0.477-1.453-1.174
		c-0.173-0.803,0.338-1.594,1.141-1.767l6.232-1.343c0.803-0.174,1.594,0.338,1.767,1.141c0.173,0.803-0.338,1.594-1.141,1.767
		l-6.232,1.343C40.871,42.883,40.766,42.894,40.662,42.894z M53.125,40.208c-0.686,0-1.302-0.477-1.453-1.174
		c-0.173-0.803,0.338-1.594,1.141-1.767l4.778-1.03l-0.451-2.094c-0.173-0.803,0.338-1.594,1.141-1.767
		c0.803-0.174,1.594,0.338,1.767,1.141l0.765,3.548c0.173,0.803-0.338,1.594-1.141,1.767l-6.232,1.343
		C53.334,40.197,53.229,40.208,53.125,40.208z M9.137,33.552c-0.686,0-1.302-0.477-1.453-1.174l-1.343-6.232
		c-0.173-0.803,0.338-1.594,1.141-1.767c0.803-0.174,1.594,0.338,1.767,1.141l1.343,6.232c0.173,0.803-0.338,1.594-1.141,1.767
		C9.347,33.541,9.241,33.552,9.137,33.552z M57.249,29.085c-0.686,0-1.302-0.477-1.453-1.174l-1.343-6.232
		c-0.173-0.803,0.338-1.594,1.141-1.767c0.803-0.174,1.594,0.338,1.767,1.141l1.343,6.232c0.173,0.803-0.338,1.594-1.141,1.767
		C57.458,29.074,57.353,29.085,57.249,29.085z M6.451,21.088c-0.686,0-1.302-0.477-1.453-1.174l-1.343-6.232
		c-0.173-0.803,0.338-1.594,1.141-1.767c0.803-0.174,1.594,0.338,1.767,1.141l1.343,6.232c0.173,0.803-0.338,1.594-1.141,1.767
		C6.661,21.077,6.555,21.088,6.451,21.088z M54.563,16.622c-0.686,0-1.302-0.477-1.453-1.174l-1.343-6.232
		c-0.173-0.803,0.338-1.594,1.141-1.767c0.803-0.173,1.594,0.338,1.767,1.141l1.343,6.232c0.173,0.803-0.338,1.594-1.141,1.767
		C54.772,16.611,54.667,16.622,54.563,16.622z M9.183,12.122c-0.686,0-1.302-0.477-1.453-1.174C7.558,10.144,8.068,9.353,8.872,9.18
		l6.232-1.343c0.803-0.174,1.594,0.338,1.767,1.141c0.173,0.803-0.338,1.594-1.141,1.767l-6.232,1.343
		C9.393,12.111,9.287,12.122,9.183,12.122z M21.647,9.436c-0.686,0-1.302-0.477-1.453-1.174c-0.173-0.803,0.338-1.594,1.141-1.767
		l6.232-1.343c0.803-0.174,1.594,0.338,1.767,1.141c0.173,0.803-0.338,1.594-1.141,1.767l-6.232,1.343
		C21.856,9.425,21.75,9.436,21.647,9.436z M34.11,6.75c-0.686,0-1.302-0.477-1.453-1.174c-0.173-0.803,0.338-1.594,1.141-1.767
		l6.232-1.343c0.803-0.174,1.594,0.338,1.767,1.141c0.173,0.803-0.338,1.594-1.141,1.767l-6.232,1.343
		C34.319,6.739,34.214,6.75,34.11,6.75z M51.877,4.158c-0.595,0-1.137-0.359-1.369-0.908l-3.62,0.78
		c-0.803,0.174-1.594-0.338-1.767-1.141c-0.173-0.803,0.338-1.594,1.141-1.767l5.049-1.088c0.803-0.174,1.594,0.338,1.767,1.141
		l0.255,1.183c0.173,0.803-0.338,1.594-1.141,1.767C52.086,4.147,51.981,4.158,51.877,4.158z"/>
</g>
</svg>
