<?xml version="1.0" encoding="utf-8"?>
<!-- Generator: Adobe Illustrator 17.0.0, SVG Export Plug-In . SVG Version: 6.00 Build 0)  -->
<!DOCTYPE svg PUBLIC "-//W3C//DTD SVG 1.1//EN" "http://www.w3.org/Graphics/SVG/1.1/DTD/svg11.dtd">
<svg version="1.1" id="Layer_1" xmlns="http://www.w3.org/2000/svg" xmlns:xlink="http://www.w3.org/1999/xlink" x="0px" y="0px"
	 width="57px" height="53px" viewBox="0 0 57 53" enable-background="new 0 0 57 53" xml:space="preserve">
<g>
	<circle fill="#24438B" cx="23.534" cy="23.534" r="23.534"/>
	<g>
		<defs>
			<circle id="SVGID_1_" cx="32.58" cy="28.668" r="23.534"/>
		</defs>
		<clipPath id="SVGID_2_">
			<use xlink:href="#SVGID_1_"  overflow="visible"/>
		</clipPath>
		<g clip-path="url(#SVGID_2_)">
			
				<rect x="69.478" y="-58.268" transform="matrix(0.7071 0.7071 -0.7071 0.7071 44.2857 -39.7196)" fill="#FF7E00" width="1.222" height="183.731"/>
			
				<rect x="64.442" y="-63.304" transform="matrix(0.7071 0.7071 -0.7071 0.7071 39.2501 -37.6339)" fill="#FF7E00" width="1.222" height="183.731"/>
			
				<rect x="59.406" y="-68.339" transform="matrix(0.7071 0.7071 -0.7071 0.7071 34.2146 -35.548)" fill="#FF7E00" width="1.222" height="183.731"/>
			
				<rect x="54.371" y="-73.375" transform="matrix(0.7071 0.7071 -0.7071 0.7071 29.179 -33.4622)" fill="#FF7E00" width="1.222" height="183.731"/>
			
				<rect x="49.335" y="-78.41" transform="matrix(0.7071 0.7071 -0.7071 0.7071 24.1435 -31.3764)" fill="#FF7E00" width="1.222" height="183.731"/>
			
				<rect x="44.3" y="-83.446" transform="matrix(0.7071 0.7071 -0.7071 0.7071 19.1079 -29.2906)" fill="#FF7E00" width="1.222" height="183.731"/>
			
				<rect x="39.264" y="-88.481" transform="matrix(0.7071 0.7071 -0.7071 0.7071 14.0723 -27.2048)" fill="#FF7E00" width="1.222" height="183.731"/>
			
				<rect x="34.229" y="-93.517" transform="matrix(0.7071 0.7071 -0.7071 0.7071 9.0367 -25.119)" fill="#FF7E00" width="1.222" height="183.731"/>
			
				<rect x="29.193" y="-98.552" transform="matrix(0.7071 0.7071 -0.7071 0.7071 4.0012 -23.0332)" fill="#FF7E00" width="1.222" height="183.731"/>
			
				<rect x="24.157" y="-103.588" transform="matrix(0.7071 0.7071 -0.7071 0.7071 -1.0344 -20.9475)" fill="#FF7E00" width="1.222" height="183.731"/>
			
				<rect x="66.96" y="-60.786" transform="matrix(0.7071 0.7071 -0.7071 0.7071 41.768 -38.6768)" fill="#FF7E00" width="1.222" height="183.731"/>
			
				<rect x="61.924" y="-65.821" transform="matrix(0.7071 0.7071 -0.7071 0.7071 36.7324 -36.5909)" fill="#FF7E00" width="1.222" height="183.731"/>
			
				<rect x="56.889" y="-70.857" transform="matrix(0.7071 0.7071 -0.7071 0.7071 31.6968 -34.5052)" fill="#FF7E00" width="1.222" height="183.731"/>
			
				<rect x="51.853" y="-75.892" transform="matrix(0.7071 0.7071 -0.7071 0.7071 26.6612 -32.4193)" fill="#FF7E00" width="1.222" height="183.731"/>
			
				<rect x="46.817" y="-80.928" transform="matrix(0.7071 0.7071 -0.7071 0.7071 21.6257 -30.3335)" fill="#FF7E00" width="1.222" height="183.732"/>
			
				<rect x="41.782" y="-85.964" transform="matrix(0.7071 0.7071 -0.7071 0.7071 16.5901 -28.2477)" fill="#FF7E00" width="1.222" height="183.731"/>
			
				<rect x="36.746" y="-90.999" transform="matrix(0.7071 0.7071 -0.7071 0.7071 11.5545 -26.1619)" fill="#FF7E00" width="1.222" height="183.732"/>
			
				<rect x="31.711" y="-96.035" transform="matrix(0.7071 0.7071 -0.7071 0.7071 6.5189 -24.0761)" fill="#FF7E00" width="1.222" height="183.731"/>
			
				<rect x="26.675" y="-101.07" transform="matrix(0.7071 0.7071 -0.7071 0.7071 1.4834 -21.9903)" fill="#FF7E00" width="1.222" height="183.732"/>
			
				<rect x="21.64" y="-106.106" transform="matrix(0.7071 0.7071 -0.7071 0.7071 -3.5522 -19.9045)" fill="#FF7E00" width="1.222" height="183.731"/>
		</g>
	</g>
</g>
</svg>
