<?xml version="1.0" encoding="utf-8"?>
<!-- Generator: Adobe Illustrator 17.0.0, SVG Export Plug-In . SVG Version: 6.00 Build 0)  -->
<!DOCTYPE svg PUBLIC "-//W3C//DTD SVG 1.1//EN" "http://www.w3.org/Graphics/SVG/1.1/DTD/svg11.dtd">
<svg version="1.1" id="Layer_1" xmlns="http://www.w3.org/2000/svg" xmlns:xlink="http://www.w3.org/1999/xlink" x="0px" y="0px"
	 width="57px" height="87px" viewBox="0 0 57 87" enable-background="new 0 0 57 87" xml:space="preserve">
<g>
	<polygon fill="#CCCCCC" points="11.152,73.423 11.459,47.3 34.236,34.504 56.706,47.832 56.399,73.955 33.622,86.751 	"/>
	<polygon fill="#CCCCCC" points="46.109,22.988 24.378,10.099 2.35,22.474 0.893,19.88 24.419,6.664 47.627,20.43 	"/>
	<polygon fill="#CCCCCC" points="46.109,16.324 24.378,3.435 2.35,15.81 0.893,13.216 24.419,0 47.627,13.766 	"/>
	<g>
		<defs>
			<polygon id="SVGID_1_" points="0,56.633 0.307,30.51 23.084,17.715 45.554,31.042 45.247,57.166 22.47,69.961 			"/>
		</defs>
		<clipPath id="SVGID_2_">
			<use xlink:href="#SVGID_1_"  overflow="visible"/>
		</clipPath>
		<g clip-path="url(#SVGID_2_)">
			
				<rect x="58.676" y="-51.296" transform="matrix(0.7877 0.6161 -0.6161 0.7877 50.6879 -23.4919)" fill="#CCCCCC" width="1.505" height="226.188"/>
			
				<rect x="51.77" y="-56.697" transform="matrix(0.7877 0.6161 -0.6161 0.7877 45.8945 -20.3842)" fill="#CCCCCC" width="1.505" height="226.188"/>
			
				<rect x="44.865" y="-62.098" transform="matrix(0.7877 0.6161 -0.6161 0.7877 41.1011 -17.2765)" fill="#CCCCCC" width="1.505" height="226.188"/>
			
				<rect x="37.959" y="-67.499" transform="matrix(0.7877 0.6161 -0.6161 0.7877 36.3076 -14.1688)" fill="#CCCCCC" width="1.505" height="226.188"/>
			
				<rect x="31.053" y="-72.9" transform="matrix(0.7877 0.6161 -0.6161 0.7877 31.5142 -11.061)" fill="#CCCCCC" width="1.505" height="226.188"/>
			
				<rect x="24.148" y="-78.301" transform="matrix(0.7877 0.6161 -0.6161 0.7877 26.7207 -7.9533)" fill="#CCCCCC" width="1.505" height="226.188"/>
			
				<rect x="17.242" y="-83.702" transform="matrix(0.7877 0.6161 -0.6161 0.7877 21.9273 -4.8456)" fill="#CCCCCC" width="1.505" height="226.188"/>
			
				<rect x="10.336" y="-89.103" transform="matrix(0.7877 0.6161 -0.6161 0.7877 17.1338 -1.7379)" fill="#CCCCCC" width="1.505" height="226.188"/>
			
				<rect x="3.43" y="-94.504" transform="matrix(0.7877 0.6161 -0.6161 0.7877 12.3405 1.3698)" fill="#CCCCCC" width="1.505" height="226.188"/>
			
				<rect x="-3.475" y="-99.905" transform="matrix(0.7877 0.6161 -0.6161 0.7877 7.547 4.4775)" fill="#CCCCCC" width="1.505" height="226.188"/>
			
				<rect x="55.223" y="-53.997" transform="matrix(0.7877 0.6161 -0.6161 0.7877 48.2913 -21.9381)" fill="#CCCCCC" width="1.505" height="226.188"/>
			
				<rect x="48.318" y="-59.398" transform="matrix(0.7877 0.6161 -0.6161 0.7877 43.4978 -18.8303)" fill="#CCCCCC" width="1.505" height="226.188"/>
			
				<rect x="41.412" y="-64.799" transform="matrix(0.7877 0.6161 -0.6161 0.7877 38.7044 -15.7226)" fill="#CCCCCC" width="1.505" height="226.188"/>
			
				<rect x="34.506" y="-70.2" transform="matrix(0.7877 0.6161 -0.6161 0.7877 33.9109 -12.6149)" fill="#CCCCCC" width="1.505" height="226.188"/>
			
				<rect x="27.6" y="-75.601" transform="matrix(0.7877 0.6161 -0.6161 0.7877 29.1175 -9.5071)" fill="#CCCCCC" width="1.505" height="226.188"/>
			
				<rect x="20.695" y="-81.002" transform="matrix(0.7877 0.6161 -0.6161 0.7877 24.324 -6.3994)" fill="#CCCCCC" width="1.505" height="226.188"/>
			
				<rect x="13.789" y="-86.403" transform="matrix(0.7877 0.6161 -0.6161 0.7877 19.5306 -3.2917)" fill="#CCCCCC" width="1.505" height="226.188"/>
			
				<rect x="6.883" y="-91.804" transform="matrix(0.7877 0.6161 -0.6161 0.7877 14.7371 -0.184)" fill="#CCCCCC" width="1.505" height="226.188"/>
			
				<rect x="-0.023" y="-97.205" transform="matrix(0.7877 0.6161 -0.6161 0.7877 9.9437 2.9237)" fill="#CCCCCC" width="1.505" height="226.188"/>
			
				<rect x="-6.928" y="-102.606" transform="matrix(0.7877 0.6161 -0.6161 0.7877 5.1503 6.0314)" fill="#CCCCCC" width="1.505" height="226.188"/>
		</g>
	</g>
</g>
</svg>
