<?xml version="1.0" encoding="utf-8"?>
<!-- Generator: Adobe Illustrator 17.0.0, SVG Export Plug-In . SVG Version: 6.00 Build 0)  -->
<!DOCTYPE svg PUBLIC "-//W3C//DTD SVG 1.1//EN" "http://www.w3.org/Graphics/SVG/1.1/DTD/svg11.dtd">
<svg version="1.1" id="Layer_1" xmlns="http://www.w3.org/2000/svg" xmlns:xlink="http://www.w3.org/1999/xlink" x="0px" y="0px"
	 width="58px" height="82px" viewBox="0 0 58 82" enable-background="new 0 0 58 82" xml:space="preserve">
<g>
	<polygon fill="#CCCCCC" points="57.934,54.494 0,52.942 30.311,3.546 	"/>
	
		<rect x="15.812" y="37.744" transform="matrix(0.6311 0.7757 -0.7757 0.6311 47.9143 6.3319)" fill="#CCCCCC" width="2.975" height="31.602"/>
	
		<rect x="32.597" y="-4.675" transform="matrix(0.6311 0.7757 -0.7757 0.6311 21.2024 -22.334)" fill="#CCCCCC" width="2.975" height="31.602"/>
	
		<rect x="35.408" y="1.014" transform="matrix(0.6311 0.7757 -0.7757 0.6311 26.6523 -22.4162)" fill="#CCCCCC" width="2.975" height="31.602"/>
	
		<rect x="18.623" y="43.433" transform="matrix(0.6311 0.7757 -0.7757 0.6311 53.3643 6.2498)" fill="#CCCCCC" width="2.975" height="31.602"/>
	
		<rect x="21.435" y="49.123" transform="matrix(0.6311 0.7757 -0.7757 0.6311 58.8142 6.1676)" fill="#CCCCCC" width="2.975" height="31.602"/>
	
		<rect x="24.246" y="54.812" transform="matrix(0.6311 0.7757 -0.7757 0.6311 64.2642 6.0855)" fill="#CCCCCC" width="2.975" height="31.602"/>
</g>
</svg>
