<?xml version="1.0" encoding="utf-8"?>
<!-- Generator: Adobe Illustrator 17.0.0, SVG Export Plug-In . SVG Version: 6.00 Build 0)  -->
<!DOCTYPE svg PUBLIC "-//W3C//DTD SVG 1.1//EN" "http://www.w3.org/Graphics/SVG/1.1/DTD/svg11.dtd">
<svg version="1.1" id="Layer_1" xmlns="http://www.w3.org/2000/svg" xmlns:xlink="http://www.w3.org/1999/xlink" x="0px" y="0px"
	 width="58px" height="82px" viewBox="0 0 58 82" enable-background="new 0 0 58 82" xml:space="preserve">
<g>
	<polygon fill="#FF7E00" points="57.934,54.224 0,52.672 30.311,3.276 	"/>
	
		<rect x="15.812" y="37.474" transform="matrix(0.6311 0.7757 -0.7757 0.6311 47.7051 6.2324)" fill="#24438B" width="2.975" height="31.602"/>
	
		<rect x="32.597" y="-4.945" transform="matrix(0.6311 0.7757 -0.7757 0.6311 20.9932 -22.4335)" fill="#24438B" width="2.975" height="31.602"/>
	
		<rect x="35.408" y="0.745" transform="matrix(0.6311 0.7757 -0.7757 0.6311 26.4431 -22.5157)" fill="#24438B" width="2.975" height="31.602"/>
	
		<rect x="18.623" y="43.164" transform="matrix(0.6311 0.7757 -0.7757 0.6311 53.155 6.1503)" fill="#24438B" width="2.975" height="31.602"/>
	
		<rect x="21.435" y="48.853" transform="matrix(0.6311 0.7757 -0.7757 0.6311 58.605 6.0681)" fill="#24438B" width="2.975" height="31.602"/>
	
		<rect x="24.246" y="54.542" transform="matrix(0.6311 0.7757 -0.7757 0.6311 64.055 5.986)" fill="#24438B" width="2.975" height="31.602"/>
</g>
</svg>
