<?xml version="1.0" encoding="utf-8"?>
<!-- Generator: Adobe Illustrator 17.0.0, SVG Export Plug-In . SVG Version: 6.00 Build 0)  -->
<!DOCTYPE svg PUBLIC "-//W3C//DTD SVG 1.1//EN" "http://www.w3.org/Graphics/SVG/1.1/DTD/svg11.dtd">
<svg version="1.1" id="Layer_1" xmlns="http://www.w3.org/2000/svg" xmlns:xlink="http://www.w3.org/1999/xlink" x="0px" y="0px"
	 width="23px" height="59px" viewBox="0 0 23 59" enable-background="new 0 0 23 59" xml:space="preserve">
<g>
	<path fill="#CCCCCC" d="M8.416,0.993c-0.03,1.883-1.912,2.69-3.425,3.339c-1.096,0.471-2.23,0.957-2.24,1.575
		C2.742,6.524,3.86,7.046,4.94,7.551c1.491,0.696,3.347,1.563,3.317,3.447c-0.03,1.884-1.912,2.69-3.425,3.339
		c-1.096,0.471-2.23,0.957-2.24,1.574c-0.01,0.617,1.108,1.139,2.189,1.644c1.491,0.696,3.347,1.563,3.317,3.447
		c-0.03,1.883-1.912,2.69-3.425,3.338c-1.096,0.471-2.23,0.956-2.24,1.573c-0.01,0.617,1.108,1.139,2.189,1.644
		c1.491,0.696,3.347,1.563,3.317,3.446c-0.03,1.883-1.912,2.69-3.425,3.339c-1.096,0.47-2.23,0.956-2.24,1.573
		c-0.01,0.617,1.108,1.139,2.189,1.643c1.491,0.696,3.347,1.563,3.317,3.447c-0.03,1.883-1.912,2.69-3.425,3.339
		c-1.096,0.47-2.23,0.956-2.24,1.573c-0.01,0.617,1.108,1.139,2.189,1.644c1.491,0.696,3.347,1.563,3.317,3.446
		c-0.03,1.883-1.912,2.69-3.425,3.339c-1.096,0.471-2.23,0.956-2.24,1.573c-0.009,0.54-0.454,0.971-0.993,0.962
		C0.422,56.873-0.008,56.429,0,55.889c0.03-1.883,1.913-2.69,3.425-3.339c1.096-0.47,2.23-0.956,2.24-1.573
		c0.01-0.617-1.108-1.139-2.189-1.644c-1.491-0.696-3.347-1.563-3.317-3.446c0.03-1.883,1.913-2.69,3.425-3.338
		c1.096-0.47,2.23-0.956,2.24-1.573c0.01-0.616-1.108-1.139-2.189-1.644c-1.491-0.696-3.347-1.562-3.317-3.446
		c0.03-1.884,1.913-2.69,3.425-3.339c1.096-0.47,2.23-0.956,2.24-1.573c0.01-0.617-1.108-1.139-2.189-1.644
		c-1.491-0.696-3.347-1.563-3.317-3.446c0.03-1.884,1.913-2.69,3.425-3.339c1.096-0.47,2.23-0.956,2.24-1.572
		c0.01-0.618-1.108-1.14-2.189-1.644c-1.491-0.696-3.347-1.563-3.317-3.447s1.913-2.691,3.425-3.34
		c1.096-0.471,2.23-0.956,2.24-1.573c0.01-0.617-1.108-1.14-2.189-1.644C2.623,8.627,0.767,7.76,0.797,5.876
		c0.03-1.884,1.913-2.692,3.425-3.341c1.096-0.471,2.23-0.957,2.24-1.573C6.471,0.421,6.916-0.008,7.455,0
		C7.994,0.008,8.425,0.452,8.416,0.993z"/>
	<path fill="#CCCCCC" d="M22.131,2.148c-0.03,1.883-1.913,2.69-3.425,3.339c-1.097,0.471-2.231,0.957-2.24,1.575
		c-0.01,0.617,1.108,1.139,2.189,1.644c1.491,0.696,3.347,1.563,3.317,3.447s-1.913,2.69-3.425,3.339
		c-1.096,0.471-2.231,0.957-2.24,1.574s1.108,1.139,2.189,1.644c1.491,0.696,3.347,1.563,3.317,3.447
		c-0.03,1.883-1.913,2.69-3.425,3.338c-1.097,0.471-2.231,0.956-2.24,1.573c-0.01,0.617,1.108,1.139,2.189,1.644
		c1.491,0.696,3.347,1.563,3.317,3.446c-0.03,1.883-1.913,2.69-3.426,3.339c-1.096,0.47-2.23,0.956-2.24,1.573
		c-0.01,0.617,1.108,1.139,2.189,1.643c1.492,0.696,3.348,1.563,3.318,3.447c-0.03,1.883-1.913,2.69-3.426,3.339
		c-1.096,0.47-2.23,0.956-2.24,1.573c-0.01,0.617,1.108,1.139,2.189,1.644c1.492,0.696,3.348,1.563,3.318,3.446
		c-0.03,1.883-1.913,2.69-3.426,3.339c-1.096,0.471-2.23,0.956-2.24,1.573c-0.009,0.54-0.454,0.971-0.993,0.962
		c-0.54-0.009-0.971-0.453-0.962-0.993c0.03-1.883,1.912-2.69,3.425-3.339c1.097-0.47,2.231-0.956,2.24-1.573
		c0.01-0.617-1.108-1.139-2.189-1.644c-1.492-0.696-3.347-1.563-3.317-3.446c0.03-1.883,1.912-2.69,3.425-3.338
		c1.097-0.47,2.231-0.956,2.24-1.573s-1.108-1.139-2.189-1.644c-1.492-0.696-3.347-1.562-3.317-3.446
		c0.03-1.884,1.912-2.69,3.425-3.339c1.097-0.47,2.231-0.956,2.24-1.573c0.01-0.617-1.108-1.139-2.189-1.644
		c-1.492-0.696-3.347-1.563-3.317-3.446c0.03-1.884,1.912-2.69,3.425-3.339c1.097-0.47,2.231-0.956,2.24-1.572
		c0.01-0.618-1.108-1.14-2.189-1.644c-1.492-0.696-3.347-1.563-3.317-3.447c0.03-1.884,1.912-2.691,3.425-3.34
		c1.097-0.471,2.231-0.956,2.24-1.573s-1.108-1.14-2.189-1.644c-1.492-0.696-3.347-1.563-3.317-3.447
		c0.03-1.884,1.912-2.692,3.425-3.341c1.097-0.471,2.231-0.957,2.24-1.573c0.009-0.541,0.453-0.971,0.993-0.962
		C21.709,1.164,22.14,1.608,22.131,2.148z"/>
</g>
</svg>
