<?xml version="1.0" encoding="utf-8"?>
<!-- Generator: Adobe Illustrator 17.0.0, SVG Export Plug-In . SVG Version: 6.00 Build 0)  -->
<!DOCTYPE svg PUBLIC "-//W3C//DTD SVG 1.1//EN" "http://www.w3.org/Graphics/SVG/1.1/DTD/svg11.dtd">
<svg version="1.1" id="Layer_1" xmlns="http://www.w3.org/2000/svg" xmlns:xlink="http://www.w3.org/1999/xlink" x="0px" y="0px"
	 width="57px" height="33px" viewBox="0 0 57 33" enable-background="new 0 0 57 33" xml:space="preserve">
<g>
	<defs>
		
			<rect id="SVGID_1_" x="14.774" y="-10.475" transform="matrix(0.1125 -0.9937 0.9937 0.1125 8.7471 42.7738)" width="27.088" height="53.931"/>
	</defs>
	<clipPath id="SVGID_2_">
		<use xlink:href="#SVGID_1_"  overflow="visible"/>
	</clipPath>
	<g clip-path="url(#SVGID_2_)">
		
			<rect x="58.345" y="-140.937" transform="matrix(0.9141 -0.4055 0.4055 0.9141 11.9008 22.5479)" fill="#CCCCCC" width="1.651" height="248.242"/>
		
			<rect x="49.549" y="-137.036" transform="matrix(0.9141 -0.4055 0.4055 0.9141 9.5634 19.3167)" fill="#CCCCCC" width="1.651" height="248.242"/>
		
			<rect x="40.754" y="-133.134" transform="matrix(0.9141 -0.4055 0.4055 0.9141 7.226 16.0855)" fill="#CCCCCC" width="1.651" height="248.242"/>
		
			<rect x="31.959" y="-129.233" transform="matrix(0.9141 -0.4055 0.4055 0.9141 4.8886 12.8543)" fill="#CCCCCC" width="1.651" height="248.242"/>
		
			<rect x="23.164" y="-125.331" transform="matrix(0.9141 -0.4055 0.4055 0.9141 2.5512 9.6231)" fill="#CCCCCC" width="1.651" height="248.242"/>
		
			<rect x="14.368" y="-121.43" transform="matrix(0.9141 -0.4055 0.4055 0.9141 0.2138 6.3919)" fill="#CCCCCC" width="1.651" height="248.242"/>
		
			<rect x="5.573" y="-117.528" transform="matrix(0.9141 -0.4055 0.4055 0.9141 -2.1236 3.1608)" fill="#CCCCCC" width="1.651" height="248.242"/>
		
			<rect x="-3.223" y="-113.627" transform="matrix(0.9141 -0.4055 0.4055 0.9141 -4.461 -0.0705)" fill="#CCCCCC" width="1.651" height="248.242"/>
		
			<rect x="-12.018" y="-109.726" transform="matrix(0.9141 -0.4055 0.4055 0.9141 -6.7984 -3.3016)" fill="#CCCCCC" width="1.651" height="248.242"/>
		
			<rect x="-20.813" y="-105.824" transform="matrix(0.9141 -0.4055 0.4055 0.9141 -9.1358 -6.5328)" fill="#CCCCCC" width="1.651" height="248.242"/>
		
			<rect x="53.947" y="-138.986" transform="matrix(0.9141 -0.4055 0.4055 0.9141 10.7322 20.9324)" fill="#CCCCCC" width="1.651" height="248.242"/>
		
			<rect x="45.152" y="-135.085" transform="matrix(0.9141 -0.4055 0.4055 0.9141 8.3947 17.7011)" fill="#CCCCCC" width="1.651" height="248.242"/>
		
			<rect x="36.357" y="-131.184" transform="matrix(0.9141 -0.4055 0.4055 0.9141 6.0574 14.4699)" fill="#CCCCCC" width="1.651" height="248.242"/>
		
			<rect x="27.561" y="-127.282" transform="matrix(0.9141 -0.4055 0.4055 0.9141 3.7199 11.2387)" fill="#CCCCCC" width="1.651" height="248.242"/>
		
			<rect x="18.766" y="-123.381" transform="matrix(0.9141 -0.4055 0.4055 0.9141 1.3825 8.0075)" fill="#CCCCCC" width="1.651" height="248.243"/>
		
			<rect x="9.97" y="-119.479" transform="matrix(0.9141 -0.4055 0.4055 0.9141 -0.9549 4.7763)" fill="#CCCCCC" width="1.651" height="248.242"/>
		
			<rect x="1.175" y="-115.578" transform="matrix(0.9141 -0.4055 0.4055 0.9141 -3.2923 1.5452)" fill="#CCCCCC" width="1.651" height="248.243"/>
		
			<rect x="-7.62" y="-111.676" transform="matrix(0.9141 -0.4055 0.4055 0.9141 -5.6297 -1.6861)" fill="#CCCCCC" width="1.651" height="248.242"/>
		
			<rect x="-16.416" y="-107.775" transform="matrix(0.9141 -0.4055 0.4055 0.9141 -7.9671 -4.9172)" fill="#CCCCCC" width="1.651" height="248.243"/>
		
			<rect x="-25.211" y="-103.873" transform="matrix(0.9141 -0.4055 0.4055 0.9141 -10.3045 -8.1484)" fill="#CCCCCC" width="1.651" height="248.242"/>
	</g>
</g>
</svg>
