<?xml version="1.0" encoding="utf-8"?>
<!-- Generator: Adobe Illustrator 17.0.0, SVG Export Plug-In . SVG Version: 6.00 Build 0)  -->
<!DOCTYPE svg PUBLIC "-//W3C//DTD SVG 1.1//EN" "http://www.w3.org/Graphics/SVG/1.1/DTD/svg11.dtd">
<svg version="1.1" id="Layer_1" xmlns="http://www.w3.org/2000/svg" xmlns:xlink="http://www.w3.org/1999/xlink" x="0px" y="0px"
	 width="57px" height="33px" viewBox="0 0 57 33" enable-background="new 0 0 57 33" xml:space="preserve">
<g>
	<circle fill="#CCCCCC" cx="4.658" cy="2.564" r="2.563"/>
	<circle fill="#CCCCCC" cx="12.275" cy="3.787" r="2.563"/>
	<circle fill="#CCCCCC" cx="19.892" cy="5.011" r="2.563"/>
	<circle fill="#CCCCCC" cx="27.509" cy="6.235" r="2.563"/>
	<circle fill="#CCCCCC" cx="35.126" cy="7.459" r="2.563"/>
	<circle fill="#CCCCCC" cx="42.743" cy="8.682" r="2.563"/>
	<circle fill="#CCCCCC" cx="50.36" cy="9.906" r="2.563"/>
	<circle fill="#CCCCCC" cx="7.771" cy="9.749" r="2.563"/>
	<circle fill="#CCCCCC" cx="15.388" cy="10.973" r="2.563"/>
	<circle fill="#CCCCCC" cx="23.005" cy="12.197" r="2.563"/>
	<circle fill="#CCCCCC" cx="30.622" cy="13.421" r="2.563"/>
	<circle fill="#CCCCCC" cx="38.239" cy="14.644" r="2.563"/>
	<circle fill="#CCCCCC" cx="45.856" cy="15.868" r="2.563"/>
	<circle fill="#CCCCCC" cx="53.473" cy="17.092" r="2.563"/>
	<circle fill="#CCCCCC" cx="2.564" cy="15.599" r="2.563"/>
	<circle fill="#CCCCCC" cx="10.181" cy="16.822" r="2.563"/>
	<circle fill="#CCCCCC" cx="17.798" cy="18.046" r="2.563"/>
	<circle fill="#CCCCCC" cx="25.414" cy="19.27" r="2.563"/>
	<circle fill="#CCCCCC" cx="33.031" cy="20.493" r="2.563"/>
	<circle fill="#CCCCCC" cx="40.648" cy="21.717" r="2.563"/>
	<circle fill="#CCCCCC" cx="48.265" cy="22.941" r="2.563"/>
	<circle fill="#CCCCCC" cx="5.677" cy="22.784" r="2.563"/>
	<circle fill="#CCCCCC" cx="13.294" cy="24.008" r="2.563"/>
	<circle fill="#CCCCCC" cx="20.911" cy="25.232" r="2.563"/>
	<circle fill="#CCCCCC" cx="28.527" cy="26.456" r="2.563"/>
	<circle fill="#CCCCCC" cx="36.144" cy="27.679" r="2.563"/>
	<circle fill="#CCCCCC" cx="43.761" cy="28.903" r="2.563"/>
	<circle fill="#CCCCCC" cx="51.378" cy="30.127" r="2.563"/>
</g>
</svg>
